<?xml version="1.0" encoding="UTF-8" standalone="no"?>
<!DOCTYPE svg PUBLIC "-//W3C//DTD SVG 1.1//EN" "http://www.w3.org/Graphics/SVG/1.1/DTD/svg11.dtd">
<svg width="100%" height="100%" viewBox="0 0 245 245" version="1.1" xmlns="http://www.w3.org/2000/svg" xmlns:xlink="http://www.w3.org/1999/xlink" xml:space="preserve" xmlns:serif="http://www.serif.com/" style="fill-rule:evenodd;clip-rule:evenodd;stroke-linejoin:round;stroke-miterlimit:2;">
    <g transform="matrix(0.166943,0,0,0.166943,20.9718,-220.891)">
        <g transform="matrix(-1.27941,-1.56682e-16,1.50536e-16,-1.22922,1308.8,4939.59)">
            <path d="M751.31,2287.07C725.189,2154.23 613.941,2058.08 483.682,2055.77C480.053,2055.71 476.455,2055.64 472.897,2055.58C408.886,2054.45 354.09,2103.12 345.11,2169.1C334.32,2248.37 319.845,2354.72 307.884,2442.6C302.302,2483.61 314.081,2525.13 340.175,2556.41C366.268,2587.68 404.111,2605.65 443.909,2605.65C507.537,2605.65 580.992,2605.65 645.603,2605.65C686.87,2605.65 725.951,2586.34 752.042,2553.06C778.133,2519.79 788.471,2476.06 780.197,2433.99C771.036,2387.4 760.973,2336.22 751.31,2287.07Z" style="fill:rgb(0,20,97);"/>
        </g>
        <g transform="matrix(1.62139,0,0,1.25,-1526.25,-1147.02)">
            <path d="M1235.88,2194.2C1235.88,2194.2 1144.41,2131.87 1043.32,2162.76C1038.85,2164.18 1035.53,2169.04 1034.98,2174.95C1034.42,2180.87 1036.75,2186.62 1040.82,2189.38C1069.19,2206.78 1112.04,2237.41 1126.39,2269.79C1133.89,2286.7 1209.75,2317.7 1209.75,2317.7" style="fill:rgb(0,20,97);"/>
        </g>
        <g transform="matrix(-1.62139,0,0,1.25,2781.32,-1151.81)">
            <path d="M1235.88,2194.2C1235.88,2194.2 1144.41,2131.87 1043.32,2162.76C1038.85,2164.18 1035.53,2169.04 1034.98,2174.95C1034.42,2180.87 1036.75,2186.62 1040.82,2189.38C1069.19,2206.78 1112.04,2237.41 1126.39,2269.79C1133.89,2286.7 1209.75,2317.7 1209.75,2317.7" style="fill:rgb(0,20,97);"/>
        </g>
        <g transform="matrix(1.62139,0,0,1.62139,-1576.91,-1978.25)">
            <circle cx="1352.42" cy="2291.2" r="147.58" style="fill:rgb(0,20,97);"/>
        </g>
        <g transform="matrix(0.678227,-1.60206,-1.69158,-0.716128,3522.63,3947.61)">
            <path d="M404.416,1935.6C411.573,1904.59 371.008,1960.01 365.289,1965.43C349.017,1980.87 292.514,2028.25 287.269,2049.23C277.476,2088.4 295.131,2166.63 303.28,2208.54C305.916,2222.1 311.821,2273.93 322.695,2284.81C333.102,2295.21 381.088,2296.05 396.294,2300.61C414.443,2306.06 418.021,2286.54 416.678,2274.45C415.585,2264.61 415.465,2254.51 412.539,2244.93C409.15,2233.84 406.719,2225.8 419.703,2217.59C428.054,2212.31 440.824,2246.09 453.371,2196.01C454.926,2189.8 434.344,2172.6 420.381,2152.52C407.761,2134.39 401.324,2102.36 392.78,2082.42C387.691,2070.55 417.359,2056.9 422.226,2047.83C423.775,2044.94 432.376,2024.86 433.941,2030.34" style="fill:rgb(0,20,97);"/>
        </g>
        <g transform="matrix(-0.678227,-1.60206,1.69158,-0.716128,-2308.59,3947.61)">
            <path d="M404.416,1935.6C411.573,1904.59 371.008,1960.01 365.289,1965.43C349.017,1980.87 292.514,2028.25 287.269,2049.23C277.476,2088.4 295.131,2166.63 303.28,2208.54C305.916,2222.1 311.821,2273.93 322.695,2284.81C333.102,2295.21 381.088,2296.05 396.294,2300.61C414.443,2306.06 418.021,2286.54 416.678,2274.45C415.585,2264.61 415.465,2254.51 412.539,2244.93C409.15,2233.84 406.719,2225.8 419.703,2217.59C428.054,2212.31 440.824,2246.09 453.371,2196.01C454.926,2189.8 434.344,2172.6 420.381,2152.52C407.761,2134.39 401.324,2102.36 392.78,2082.42C387.691,2070.55 417.359,2056.9 422.226,2047.83C423.775,2044.94 432.376,2024.86 433.941,2030.34" style="fill:rgb(0,20,97);"/>
        </g>
        <g transform="matrix(1.51209,0.111817,-0.111817,1.51209,-62.1939,-1254.34)">
            <path d="M644.764,2350.52C641.248,2350.35 641.683,2352.23 641.933,2355.4C643.881,2380.07 653.208,2407.35 651.5,2431.25C650.954,2438.9 658.947,2448.44 665.753,2452.63C672.155,2456.57 775.204,2508.35 783.974,2499.58C790.838,2492.72 808.543,2487.88 820.094,2482.11C832.744,2475.78 849.374,2471.53 859.924,2462.49C916.946,2413.62 804.92,2396.51 790.417,2367.51C781.266,2349.2 790.265,2303.86 778.898,2283.75" style="fill:rgb(0,20,97);"/>
        </g>
        <g transform="matrix(1.52677,0,0,1.52677,-325.933,-1208.44)">
            <path d="M600.346,2341.83C592.168,2345.92 608.814,2424.18 600.053,2441.7C597.35,2447.1 539.463,2468.7 531.327,2471.96C461.023,2500.08 443.266,2527.2 386.163,2470.1C378.415,2462.36 364.036,2454.36 361.659,2442.48C356.644,2417.4 427.615,2376.93 448.055,2360.58C452.305,2357.18 462.357,2356.73 466.604,2349.93C475.93,2335.01 475.597,2325.73 474.901,2308.35C474.65,2302.07 462.401,2232.93 460.902,2230.68" style="fill:rgb(0,20,97);"/>
        </g>
    </g>
</svg>
